<svg width="20" height="20" viewBox="0 0 20 20" fill="none" xmlns="http://www.w3.org/2000/svg">
<path d="M10 8.3335H10.0083" stroke="#00AEEF" stroke-linecap="round" stroke-linejoin="round"/>
<path d="M10 11.6665H10.0083" stroke="#00AEEF" stroke-linecap="round" stroke-linejoin="round"/>
<path d="M10 5H10.0083" stroke="#00AEEF" stroke-linecap="round" stroke-linejoin="round"/>
<path d="M13.3333 8.3335H13.3417" stroke="#00AEEF" stroke-linecap="round" stroke-linejoin="round"/>
<path d="M13.3333 11.6665H13.3417" stroke="#00AEEF" stroke-linecap="round" stroke-linejoin="round"/>
<path d="M13.3333 5H13.3417" stroke="#00AEEF" stroke-linecap="round" stroke-linejoin="round"/>
<path d="M6.66667 8.3335H6.67501" stroke="#00AEEF" stroke-linecap="round" stroke-linejoin="round"/>
<path d="M6.66667 11.6665H6.67501" stroke="#00AEEF" stroke-linecap="round" stroke-linejoin="round"/>
<path d="M6.66667 5H6.67501" stroke="#00AEEF" stroke-linecap="round" stroke-linejoin="round"/>
<path d="M7.5 18.3333V15.8333C7.5 15.6123 7.5878 15.4004 7.74408 15.2441C7.90036 15.0878 8.11232 15 8.33333 15H11.6667C11.8877 15 12.0996 15.0878 12.2559 15.2441C12.4122 15.4004 12.5 15.6123 12.5 15.8333V18.3333" stroke="#00AEEF" stroke-linecap="round" stroke-linejoin="round"/>
<path d="M15 1.6665H4.99999C4.07952 1.6665 3.33333 2.4127 3.33333 3.33317V16.6665C3.33333 17.587 4.07952 18.3332 4.99999 18.3332H15C15.9205 18.3332 16.6667 17.587 16.6667 16.6665V3.33317C16.6667 2.4127 15.9205 1.6665 15 1.6665Z" stroke="#00AEEF" stroke-linecap="round" stroke-linejoin="round"/>
</svg>
